<?xml version="1.0" standalone="no"?>
<!DOCTYPE svg PUBLIC "-//W3C//DTD SVG 20010904//EN"
 "http://www.w3.org/TR/2001/REC-SVG-20010904/DTD/svg10.dtd">
<svg version="1.0" xmlns="http://www.w3.org/2000/svg"
 width="1200.000000pt" height="1200.000000pt" viewBox="0 0 1200.000000 1200.000000"
 preserveAspectRatio="xMidYMid meet">
<metadata>
Created by potrace 1.11, written by Peter Selinger 2001-2013
</metadata>
<g transform="translate(0.000000,1200.000000) scale(0.100000,-0.100000)"
fill="#000000" stroke="none">
<path d="M5769 10496 c-2 -2 -51 -6 -109 -10 -58 -3 -121 -8 -140 -11 -19 -2
-57 -7 -85 -11 -98 -12 -111 -14 -195 -29 -47 -8 -96 -17 -110 -20 -14 -2 -38
-7 -55 -10 -16 -4 -59 -13 -95 -22 -36 -8 -69 -16 -75 -18 -37 -8 -86 -22
-203 -56 -485 -144 -989 -398 -1387 -698 -63 -48 -196 -152 -205 -161 -3 -3
-41 -36 -85 -74 -79 -69 -314 -301 -389 -384 -30 -34 -179 -219 -260 -322 -87
-112 -244 -362 -342 -545 -68 -127 -91 -173 -141 -285 -13 -30 -31 -68 -38
-85 -23 -51 -71 -177 -94 -245 -13 -36 -25 -72 -28 -80 -4 -8 -7 -17 -8 -20 0
-3 -10 -34 -22 -70 -54 -164 -137 -530 -158 -695 -3 -27 -8 -63 -10 -80 -3
-16 -7 -55 -10 -85 -2 -30 -8 -89 -12 -130 -10 -101 -10 -581 0 -700 20 -233
54 -458 102 -660 86 -368 198 -678 366 -1014 290 -578 716 -1100 1231 -1507
124 -98 322 -239 336 -239 5 0 15 -7 22 -15 6 -8 31 -25 53 -38 23 -13 83 -48
132 -77 168 -98 412 -215 636 -304 156 -62 501 -165 609 -182 19 -3 38 -8 43
-11 4 -2 20 -6 35 -9 15 -2 50 -9 77 -14 76 -15 86 -17 140 -25 28 -4 59 -9
70 -10 25 -4 121 -16 160 -20 240 -27 782 -27 955 0 14 2 48 6 75 10 102 11
142 17 210 31 39 8 80 14 93 14 l23 0 -20 29 c-43 60 -68 177 -65 306 3 187
31 281 154 533 55 111 100 204 100 206 0 2 8 21 17 42 9 22 17 41 18 44 1 3 4
12 8 20 60 158 82 262 80 390 -3 148 -57 235 -200 321 -93 56 -177 121 -223
172 -16 18 -61 86 -101 152 -74 123 -126 195 -200 275 -54 58 -117 154 -127
194 -4 17 -7 85 -6 152 2 92 8 136 24 185 28 83 93 205 170 320 l62 92 4 98
c3 93 2 99 -22 129 -32 37 -147 107 -192 116 -28 6 -38 2 -65 -24 -50 -48 -81
-50 -168 -10 -92 43 -286 162 -311 191 -10 12 -34 50 -54 85 -20 35 -57 86
-83 114 -44 48 -48 50 -116 58 -50 5 -130 30 -275 84 -113 43 -214 82 -225 86
-11 5 -103 41 -205 80 -246 96 -295 117 -360 161 -125 83 -178 177 -194 338
-6 60 -67 186 -107 221 -19 17 -172 227 -188 258 -10 20 -30 70 -45 110 -34
96 -46 118 -56 103 -12 -20 8 -99 86 -341 50 -158 54 -187 18 -162 -6 4 -50
66 -98 137 l-88 130 -3 95 c-3 114 -30 195 -140 430 -159 338 -168 504 -43
805 94 226 117 291 124 356 11 112 42 142 98 98 14 -11 26 -19 26 -17 0 2 -9
26 -19 53 -26 69 -32 122 -30 250 5 307 2 349 -22 401 -31 64 -111 68 -267 15
-92 -32 -294 -128 -300 -143 -2 -4 -10 -8 -18 -8 -36 0 54 110 146 179 19 14
37 29 40 32 3 3 147 100 320 215 355 235 398 256 525 256 89 0 158 -19 314
-83 164 -68 341 -113 355 -91 3 6 -12 32 -34 57 -38 43 -40 49 -27 69 31 46
216 50 314 6 25 -11 84 -51 133 -90 48 -39 114 -83 147 -98 52 -24 70 -27 178
-29 160 -2 155 -1 155 -15 0 -7 -16 -29 -36 -48 -30 -31 -34 -40 -32 -79 3
-51 9 -45 -147 -135 -104 -61 -165 -111 -165 -137 0 -29 40 -62 173 -140 66
-39 161 -99 211 -134 112 -76 147 -95 189 -100 69 -9 98 44 91 162 -5 78 -5
77 -28 205 -17 91 -17 100 -2 123 17 26 28 29 84 26 32 -2 136 -36 157 -51 6
-4 32 -19 58 -34 54 -30 99 -38 138 -24 67 23 151 4 237 -53 24 -16 45 -29 48
-29 13 0 353 -260 401 -306 9 -9 -6 -22 -66 -57 -163 -95 -232 -179 -196 -237
9 -14 82 -60 95 -60 6 0 28 -11 50 -25 54 -34 53 -61 -2 -109 -50 -43 -51 -44
-106 -74 l-43 -23 -28 21 c-50 35 -76 27 -147 -44 -68 -67 -72 -81 -43 -138
12 -23 11 -28 -6 -28 -41 0 -129 -45 -174 -90 -67 -67 -95 -155 -93 -294 1
-56 4 -112 6 -125 9 -43 -20 -86 -142 -207 -66 -67 -129 -138 -140 -160 -25
-50 -23 -127 7 -209 66 -179 72 -218 41 -235 -31 -17 -49 -7 -137 79 -94 91
-147 130 -225 164 -52 23 -68 28 -138 42 -14 3 -57 6 -97 6 -363 0 -676 -207
-699 -463 -15 -165 100 -396 212 -427 104 -29 172 -3 399 152 100 69 149 82
180 47 29 -32 26 -123 -8 -229 -27 -83 -32 -110 -21 -99 8 9 120 -20 164 -42
115 -59 182 -171 196 -327 21 -240 166 -345 495 -360 l126 -6 64 32 c35 18
137 83 226 145 159 111 247 157 328 171 137 23 300 -15 485 -115 224 -121 338
-167 564 -230 78 -21 157 -45 177 -54 51 -21 97 -62 119 -105 17 -34 21 -51
35 -136 24 -151 64 -178 280 -190 171 -9 345 -24 355 -30 4 -2 21 -7 38 -10
102 -18 221 -94 237 -152 22 -78 -12 -232 -88 -403 -122 -275 -291 -563 -477
-809 -105 -139 -163 -199 -244 -253 -82 -55 -154 -131 -282 -301 -134 -175
-204 -247 -364 -371 -105 -81 -459 -333 -525 -373 -11 -7 -51 -31 -90 -54
-182 -111 -270 -200 -362 -369 -42 -78 -82 -141 -107 -169 l-21 -24 30 7 c72
16 231 61 365 103 657 208 1294 596 1791 1092 119 120 258 272 319 351 19 25
37 47 41 50 27 22 218 297 305 440 129 211 225 398 316 615 99 234 208 580
244 771 2 12 13 64 24 117 10 52 22 117 25 144 4 26 8 59 11 73 2 14 6 48 9
75 4 28 8 64 10 80 13 100 20 270 20 475 0 319 -9 431 -61 770 -11 73 -47 240
-79 365 -159 621 -476 1239 -887 1733 -142 170 -348 382 -493 508 -44 38 -82
71 -85 74 -20 20 -164 131 -258 200 -258 186 -591 375 -857 485 -49 21 -110
46 -134 57 -86 38 -437 150 -544 173 -10 2 -27 7 -37 10 -21 7 -15 5 -185 39
-159 31 -232 43 -310 51 -131 13 -161 17 -185 22 -28 5 -605 14 -611 9z m641
-146 c30 -6 66 -14 80 -16 14 -3 59 -14 100 -24 41 -10 91 -22 110 -25 19 -3
42 -8 50 -10 8 -2 35 -7 59 -10 138 -20 291 -118 354 -226 23 -40 29 -66 43
-164 2 -16 31 -84 65 -150 75 -146 84 -176 58 -204 -16 -17 -28 -20 -62 -16
-95 12 -346 162 -576 345 -63 49 -118 90 -122 90 -4 0 -14 6 -21 13 -30 29
-194 101 -255 111 -15 3 -55 8 -88 11 -33 4 -75 8 -94 10 -30 3 -64 24 -83 50
-25 34 18 119 95 184 55 48 156 58 287 31z m-419 -58 c42 -52 -14 -149 -116
-204 -94 -50 -244 -68 -290 -35 -17 13 -15 16 24 58 22 24 41 48 42 54 4 61
17 79 78 107 68 31 129 45 190 44 42 -1 57 -6 72 -24z m-96 -377 c48 -4 95 -8
104 -10 9 -1 33 -6 55 -9 21 -4 81 -32 133 -62 51 -30 96 -54 100 -54 14 0
129 -76 160 -106 18 -18 34 -43 34 -56 1 -12 2 -30 3 -38 3 -33 -18 -71 -46
-86 -24 -13 -49 -14 -126 -9 -53 4 -99 8 -102 10 -3 1 -27 6 -54 9 -48 7 -116
30 -116 40 0 3 14 21 31 41 22 24 33 49 36 79 5 40 3 45 -32 73 -40 33 -118
57 -220 68 -89 9 -164 33 -191 60 -38 38 -32 46 40 57 24 4 83 2 191 -7z m440
-3350 c79 -26 218 -90 305 -141 104 -61 177 -93 201 -89 13 3 48 14 77 26 40
17 66 20 105 16 57 -6 127 -34 127 -51 0 -15 -29 -32 -70 -41 -19 -4 -44 -13
-56 -20 -64 -41 -197 -47 -295 -15 -35 12 -122 52 -194 90 -146 77 -272 122
-390 140 -122 19 -140 25 -143 44 -5 24 25 54 62 65 55 16 185 4 271 -24z"/>
</g>
</svg>
